<?xml version="1.0" standalone="no"?>
<!DOCTYPE svg PUBLIC "-//W3C//DTD SVG 20010904//EN"
 "http://www.w3.org/TR/2001/REC-SVG-20010904/DTD/svg10.dtd">
<svg version="1.0" xmlns="http://www.w3.org/2000/svg"
 width="256.000000pt" height="256.000000pt" viewBox="0 0 256.000000 256.000000"
 preserveAspectRatio="xMidYMid meet">
<metadata>
Created by potrace 1.11, written by Peter Selinger 2001-2013
</metadata>
<g transform="translate(0.000000,256.000000) scale(0.100000,-0.100000)"
fill="#000000" stroke="none">
<path d="M1109 2556 c-2 -2 -29 -7 -60 -10 -31 -4 -67 -9 -80 -12 -13 -3 -37
-8 -54 -10 -108 -19 -303 -102 -412 -175 -219 -148 -356 -361 -403 -629 -12
-64 -15 -267 -6 -325 3 -16 8 -97 11 -180 8 -165 13 -134 -78 -443 -13 -45
-21 -81 -16 -80 4 2 60 53 125 113 64 61 125 117 135 126 14 12 34 15 71 13
49 -3 230 -11 421 -19 44 -2 81 -6 83 -8 3 -3 -4 -20 -15 -38 -12 -19 -21 -39
-21 -44 0 -6 60 -43 133 -83 239 -131 306 -173 368 -232 207 -198 349 -296
553 -384 83 -35 287 -98 356 -110 19 -3 50 -10 69 -16 19 -5 36 -8 38 -7 3 3
-42 133 -195 567 -50 140 -89 256 -88 258 2 1 47 -84 101 -190 53 -106 100
-196 104 -200 4 -4 6 43 4 105 -12 555 -12 570 -28 696 -8 61 -33 201 -43 234
-6 22 3 48 44 135 80 167 92 150 -98 147 -147 -3 -252 -11 -269 -21 -4 -2 -19
6 -33 17 l-27 21 21 20 c19 18 23 18 38 5 39 -34 56 -30 209 46 207 101 253
114 431 118 28 1 52 4 52 8 0 11 -160 162 -235 223 -102 81 -203 144 -329 203
-100 47 -264 105 -341 121 -38 7 -120 22 -165 30 -40 7 -365 15 -371 10z
m-496 -1022 c3 -4 0 -18 -7 -33 -24 -47 -39 -134 -38 -218 l2 -82 -70 -56
c-38 -30 -71 -55 -73 -55 -3 0 8 26 24 58 25 51 72 196 83 256 2 11 14 47 26
79 19 52 36 68 53 51z"/>
</g>
</svg>
